Coordinates											
version=1											
nRows=65											
nColumns=12											
inDegrees=yes											
											
"Units are S.I. units (second, meters, Newtons, ...)"											
"If the header above contains a line with 'inDegrees', this indicates whether rotational values are in degrees (yes) or radians (no)."											
											
endheader											
time	clav_prot	clav_elev	scapula_abduction	scapula_elevation	scapula_upward_rot	scapula_winging	plane_elv	shoulder_elv	axial_rot	elbow_flexion	pro_sup
8.18	-39.55317908	4.50048125	-26.60615751	-3.8819474	37.34054531	-7.06833482	28.57220351	69.11328588	-7.52864923	0	34.32
8.19	-39.5330371	4.50818956	-26.65564372	-3.85983497	37.23735476	-7.04117938	28.53307356	68.90199665	-7.56996749	0	34.32
8.2	-39.49202953	4.43562035	-26.77322274	-3.86720759	36.96278261	-6.94528417	27.97137817	68.17761173	-7.38804974	0	34.32
8.21	-39.57623674	4.36220602	-27.00566758	-3.89987318	36.78896385	-6.92974981	27.79363726	67.67543238	-7.22621914	0	34.32
8.22	-39.81608583	4.35684199	-27.40265758	-3.91648489	36.74371502	-7.03808044	27.83438103	67.02485077	-7.40382697	0	34.32
8.23	-39.81232984	4.35782581	-27.44773274	-3.90537834	36.67603674	-7.02356705	27.80758045	66.87700498	-7.44322185	0	34.32
8.24	-40.014741	4.38392846	-27.81948716	-3.89254561	36.60181721	-7.11903852	27.3777994	66.09009501	-7.9925331	0	34.32
8.25	-40.13712274	4.52553926	-28.11055076	-3.7922001	36.52779047	-7.21194674	26.73072069	66.39378804	-19.82699967	0	34.32
8.26	-40.11169838	4.48738262	-28.2171426	-3.7849054	36.31492486	-7.14513788	26.31871946	65.79416004	-19.20741682	0	34.32
8.27	-39.79583411	4.35433974	-28.06698115	-3.77569289	35.81029088	-6.84389482	25.83280392	65.48694724	-17.07153308	0	34.32
8.28	-39.94791129	4.29607813	-28.2819926	-3.82799021	35.80286645	-6.8999846	25.86154806	64.54380188	-16.04084003	0	34.32
8.29	-40.00087443	4.57376895	-28.58741251	-3.61137626	35.63471086	-6.98046345	26.2747607	63.85822383	-16.39068062	0	34.32
8.3	-40.39401546	4.68113199	-29.20906668	-3.57046784	35.64789292	-7.21762049	26.69493477	63.1659927	-16.16964307	0	34.32
8.31	-40.37508114	4.66202852	-29.2289565	-3.57073162	35.57290281	-7.18723912	26.6484364	63.04556879	-16.18733941	0	34.32
8.32	-40.19280692	4.3219702	-29.13020528	-3.73148574	35.1692544	-6.90514595	25.83875238	62.59652673	-14.15629932	0	34.32
8.33	-40.19837266	4.28251065	-29.23581577	-3.73588153	35.01834701	-6.86476447	25.49933075	61.93048535	-12.79567417	0	34.32
8.34	-40.26421808	4.39790537	-29.41593864	-3.65196193	34.96530169	-6.92402609	25.518555	61.09841823	-11.96608004	0	34.32
8.35	-40.20139718	4.53084512	-29.48002874	-3.52956707	34.81613288	-6.90271174	25.51506332	60.75943246	-12.09962447	0	34.32
8.36	-40.150361	4.48055292	-29.55601612	-3.5236254	34.58434755	-6.81295109	25.03165206	59.96441504	-11.24906127	0	34.32
8.37	-40.01299511	4.34152715	-29.48349058	-3.56958331	34.3333558	-6.64766071	24.59701946	59.44595059	-10.35123652	0	34.32
8.38	-39.93427187	4.15115497	-29.42854382	-3.66777164	34.15271215	-6.51068427	24.15544783	58.88004337	-9.65950545	0	34.32
8.39	-39.87704987	3.97192712	-29.39422561	-3.76343878	33.99389996	-6.39209736	23.83679694	58.31819199	-9.15355282	0	34.32
8.4	-39.83779091	3.86395721	-29.38962861	-3.81549298	33.8666235	-6.31139613	23.56210607	57.74943164	-8.86301662	0	34.32
8.41	-39.79457726	4.16322599	-29.27844011	-3.63522788	34.07627484	-6.42827462	22.67647166	58.04480203	-22.33487656	0	34.32
8.42	-39.81051408	4.2875479	-29.47738985	-3.52003649	33.89992527	-6.43784462	22.52421122	57.53906981	-22.66715095	0	34.32
8.43	-39.90489022	4.36281032	-29.81768364	-3.43654993	33.66792652	-6.4591513	22.68070941	56.8362666	-21.18492777	0	34.32
8.44	-39.83367963	4.39833544	-29.84067317	-3.37905091	33.50835696	-6.39990551	22.4316208	56.18827845	-20.68272565	0	34.32
8.45	-39.29143122	4.2078906	-29.36901813	-3.37208935	32.93776114	-5.94968395	21.33587538	55.91323412	-22.75166817	0	34.32
8.46	-39.35612755	3.94638656	-29.42504619	-3.54975022	32.86384255	-5.88563076	21.16540454	55.02556817	-20.49439348	0	34.32
8.47	-39.31447658	3.78588232	-29.42090805	-3.63241388	32.70308152	-5.78072835	20.90872333	54.2973666	-19.01956162	0	34.32
8.48	-39.30539829	3.68970815	-29.4508213	-3.6813053	32.59541777	-5.72292874	20.69125604	53.60754103	-18.34049453	0	34.32
8.49	-39.28044341	3.66277637	-29.45928216	-3.68509051	32.51844264	-5.68571297	20.40154576	52.93772102	-18.10242349	0	34.32
8.5	-39.19584153	3.62503858	-29.41722754	-3.6811645	32.38116625	-5.60308248	19.99346185	52.30367714	-17.92046729	0	34.32
8.51	-39.03519377	3.50391383	-29.3307188	-3.70575531	32.1044915	-5.42741062	19.49768221	51.73805339	-17.85158584	0	34.32
8.52	-38.80591003	3.24803403	-29.19759668	-3.79417553	31.68044991	-5.14463488	19.02566547	51.19980474	-17.19066316	0	34.32
8.53	-38.64773339	2.98166795	-29.12457877	-3.90615842	31.3168886	-4.90531868	18.54750624	50.71874556	-16.67942726	0	34.32
8.54	-38.59026791	2.7543165	-29.11685934	-4.0237507	31.09506863	-4.75600554	18.05653056	50.24124142	-16.70845566	0	34.32
8.55	-38.59520016	2.62173314	-29.16842258	-4.09617565	30.96966806	-4.68707247	17.68287547	49.78469237	-17.3321253	0	34.32
8.56	-38.5357209	2.53025045	-29.19146768	-4.12000154	30.76677682	-4.58460748	17.50448673	49.27925904	-17.02215365	0	34.32
8.57	-38.49688477	2.51091582	-29.30819589	-4.08431423	30.5116137	-4.50363771	17.39749041	48.78303976	-16.61804354	0	34.32
8.58	-38.47735702	2.46529869	-29.48576442	-4.05815035	30.19939621	-4.4096614	17.31227631	48.06869486	-15.842361	0	34.32
8.59	-38.39665431	2.46050709	-29.65761122	-3.97798903	29.78283254	-4.27749911	17.21502768	47.28900955	-14.71827203	0	34.32
8.6	-38.32666707	2.48970903	-29.72124432	-3.90901631	29.55719167	-4.20346558	17.12793554	46.97557799	-14.75983934	0	34.32
8.61	-38.28514123	2.13639379	-29.81866436	-4.08337727	29.15744328	-3.9779903	15.96559221	46.1521326	-14.81218158	0	34.32
8.62	-38.21276429	1.9488589	-29.81054182	-4.16707126	28.9212535	-3.82907948	15.11106179	45.86390728	-15.72024662	0	34.32
8.63	-38.09347685	1.81854312	-29.73948466	-4.20870241	28.69996677	-3.68170199	14.81955375	45.10480616	-14.17334496	0	34.32
8.64	-37.98555179	1.93003392	-29.76507454	-4.07783633	28.48239608	-3.62073938	14.81206993	44.78440243	-14.22839278	0	34.32
8.65	-37.90309775	2.05832689	-29.97744869	-3.89745091	28.06289467	-3.52871958	14.75532788	44.08960614	-12.64780676	0	34.32
8.66	-37.843161	2.1127085	-30.04059348	-3.81519518	27.86856392	-3.47391907	14.69231069	43.73693915	-12.71412535	0	34.32
8.67	-38.12518631	1.66534647	-30.51263636	-4.10572029	27.59076121	-3.38771909	13.50561607	43.25893803	-18.1311023	0	34.32
8.68	-37.77781673	1.37550823	-30.0436939	-4.24030773	27.35888802	-3.08363429	12.34637163	42.6142978	-15.42684153	0	34.32
8.69	-37.75583127	1.33678275	-30.07616126	-4.24380552	27.24497762	-3.03418689	12.29057067	42.44191661	-15.43199401	0	34.32
8.7	-37.55821678	1.05388826	-29.84058324	-4.38527738	27.01039628	-2.79821538	11.24241471	41.76263856	-13.76773699	0	34.32
8.71	-37.49705741	1.08368287	-29.91605076	-4.31238917	26.77934345	-2.72828676	11.13310699	41.1186035	-12.58199549	0	34.32
8.72	-37.495527	1.19379083	-30.09975365	-4.18893712	26.56304288	-2.7139614	11.04762501	40.4458668	-11.76480884	0	34.32
8.73	-37.45302604	1.22134684	-30.13975295	-4.13724729	26.42375935	-2.67183668	11.01673048	40.24426611	-11.78046617	0	34.32
8.74	-37.54135539	1.19771411	-30.53199704	-4.08306696	26.03958643	-2.61020818	10.41234747	39.30564269	-10.90332134	0	34.32
8.75	-37.55008537	1.06770368	-30.76514143	-4.09866177	25.65500816	-2.47867544	10.06233933	38.66786344	-10.03484447	0	34.32
8.76	-37.47302745	1.00302022	-30.88730313	-4.05915633	25.27046609	-2.33172679	9.90214235	38.10392559	-9.23632151	0	34.32
8.77	-37.32824413	0.9304759	-30.79029329	-4.05365292	25.04984502	-2.19290367	9.45905543	37.52619157	-8.67153192	0	34.32
8.78	-37.10132395	0.79785723	-30.38554157	-4.13471543	25.06535152	-2.05749483	8.24255116	37.05046736	-8.40703148	0	34.32
8.79	-36.86602215	0.61459282	-29.91421628	-4.26321946	25.13390448	-1.91564418	6.72856827	36.71057735	-8.17997294	0	34.32
8.8	-36.73849189	0.46837303	-29.73791968	-4.33785758	25.03176932	-1.78973552	5.8133809	36.31875933	-7.76257818	0	34.32
8.81	-36.68040284	0.46013258	-29.88988743	-4.26296863	24.67074013	-1.67676459	5.61621779	35.80671608	-7.21574058	0	34.32
8.82	-36.62518224	0.5407197	-30.21876171	-4.07694511	24.0958374	-1.54220756	5.81414023	35.2765774	-6.6234603	0	34.32
